<?xml version="1.0" standalone="no"?>
<!DOCTYPE svg PUBLIC "-//W3C//DTD SVG 20010904//EN"
 "http://www.w3.org/TR/2001/REC-SVG-20010904/DTD/svg10.dtd">
<svg version="1.0" xmlns="http://www.w3.org/2000/svg"
 width="1536.000000pt" height="306.000000pt" viewBox="0 0 1536.000000 306.000000"
 preserveAspectRatio="xMidYMid meet">
<metadata>
Created by potrace 1.15, written by Peter Selinger 2001-2017
</metadata>
<g transform="translate(0.000000,306.000000) scale(0.100000,-0.100000)"
fill="#000000" stroke="none">
<path d="M6280 1565 c0 -138 18 -157 22 -23 l3 92 60 -92 c33 -50 66 -92 73
-92 9 0 12 30 12 115 0 70 -4 115 -10 115 -6 0 -10 -35 -10 -85 0 -47 -3 -85
-7 -85 -5 0 -33 38 -63 85 -30 47 -61 85 -67 85 -10 0 -13 -30 -13 -115z"/>
<path d="M7636 1578 c-22 -57 -41 -109 -44 -115 -2 -7 2 -13 10 -13 8 0 20 16
27 36 12 34 14 35 59 32 42 -3 49 -7 62 -35 15 -32 41 -45 39 -20 -2 30 -86
212 -99 215 -11 2 -26 -27 -54 -100z"/>
<path d="M6519 1601 c-19 -15 -24 -29 -24 -66 0 -37 5 -51 24 -66 30 -25 62
-24 95 2 21 16 26 29 26 64 0 35 -5 48 -26 64 -33 26 -65 27 -95 2z"/>
<path d="M8132 1604 c-12 -8 -22 -22 -22 -30 0 -20 9 -18 29 8 14 16 24 19 45
14 40 -10 30 -39 -16 -47 -47 -7 -68 -25 -68 -55 0 -35 41 -52 83 -36 21 8 33
9 35 2 2 -5 8 -10 13 -10 5 0 9 31 9 68 0 54 -4 72 -18 85 -23 21 -61 22 -90
1z"/>
</g>
</svg>
