<?xml version="1.0" standalone="no"?>
<!DOCTYPE svg PUBLIC "-//W3C//DTD SVG 20010904//EN"
 "http://www.w3.org/TR/2001/REC-SVG-20010904/DTD/svg10.dtd">
<svg version="1.0" xmlns="http://www.w3.org/2000/svg"
 width="208.000000pt" height="195.000000pt" viewBox="0 0 208.000000 195.000000"
 preserveAspectRatio="xMidYMid meet">
<metadata>
Created by potrace 1.15, written by Peter Selinger 2001-2017
</metadata>
<g transform="translate(0.000000,195.000000) scale(0.100000,-0.100000)"
fill="#000000" stroke="none">
<path d="M87 1898 c-9 -7 -23 -31 -30 -53 -10 -28 -20 -41 -35 -43 l-22 -3 0
-324 c0 -321 0 -323 21 -328 12 -3 33 2 47 11 22 14 52 17 192 16 120 -1 172
-5 190 -15 14 -7 29 -12 34 -11 5 2 209 4 455 6 415 4 750 13 760 22 2 2 -233
4 -522 4 -510 0 -527 1 -537 19 -6 12 -10 93 -10 194 0 156 2 176 18 190 17
16 82 17 725 17 l707 0 0 85 0 85 -49 0 c-28 0 -52 4 -56 10 -8 12 35 11 -722
16 -653 4 -663 4 -683 -16 -24 -24 -91 -27 -110 -5 -7 8 -16 12 -21 9 -5 -3
-6 1 -3 9 8 23 -26 16 -52 -10 -30 -30 -86 -31 -114 -3 -11 11 -20 17 -20 14
0 -18 -28 21 -33 46 -12 60 -84 92 -130 58z m368 -448 l0 -195 -195 0 -195 0
-3 185 c-1 101 0 190 3 197 3 11 46 13 197 11 l193 -3 0 -195z"/>
<path d="M652 1578 c-8 -8 -12 -64 -12 -184 0 -144 3 -175 16 -188 14 -14 93
-16 720 -16 l704 0 -3 34 c-1 24 -6 32 -16 28 -9 -3 -12 -1 -7 6 4 7 3 12 -2
12 -18 0 -21 -13 -6 -25 13 -9 9 -11 -22 -12 -24 -1 -43 5 -52 15 -13 16 -13
16 -8 -1 12 -37 -29 -12 -46 28 -15 36 -17 37 -17 13 -1 -14 5 -28 12 -31 6
-2 9 -8 5 -12 -4 -4 -14 -2 -22 4 -9 7 -17 8 -20 2 -3 -5 0 -12 6 -14 7 -3 3
-6 -9 -6 -24 -1 -39 14 -23 24 5 3 10 11 10 18 0 8 -3 8 -12 -1 -17 -17 -44
-15 -64 6 -17 16 -18 16 -11 0 4 -12 2 -18 -9 -18 -8 0 -13 4 -10 9 4 5 -4 7
-15 4 -21 -6 -21 -7 -4 -19 12 -9 23 -10 36 -4 23 13 29 13 29 0 0 -5 -9 -10
-20 -10 -11 0 -20 -4 -20 -10 0 -5 -9 -10 -21 -10 -11 0 -18 4 -15 8 5 9 -28
42 -42 42 -4 0 -25 12 -46 26 -21 15 -36 22 -33 16 4 -5 -3 -12 -14 -15 -16
-4 -20 -11 -15 -24 6 -17 6 -17 -8 0 -8 10 -17 14 -20 9 -3 -6 -15 -8 -26 -5
-14 4 -20 0 -20 -11 0 -10 -5 -14 -10 -11 -6 4 -10 3 -9 -2 4 -24 -3 -34 -23
-31 -13 2 -23 8 -23 15 0 6 -3 14 -7 18 -4 4 -4 14 0 23 3 9 -8 2 -25 -15 -26
-26 -31 -29 -30 -13 1 10 4 17 8 14 8 -5 23 14 33 41 6 16 5 18 -6 7 -7 -7
-13 -18 -13 -25 0 -7 -10 -11 -22 -11 -13 1 -20 -3 -17 -7 3 -5 1 -9 -5 -9 -5
0 -11 5 -13 11 -2 7 -9 5 -17 -5 -12 -14 -10 -16 13 -16 15 0 25 -4 22 -9 -3
-5 -16 -7 -28 -3 -14 3 -19 2 -14 -6 5 -8 -4 -12 -29 -12 -22 0 -34 4 -30 10
9 14 -8 13 -23 -2 -9 -9 -12 -5 -12 19 0 18 -4 34 -9 38 -6 3 -8 -5 -5 -19 4
-21 1 -24 -26 -22 -16 1 -30 -1 -30 -5 0 -12 -40 -18 -46 -7 -4 6 -10 5 -15
-3 -7 -11 -9 -11 -9 -1 0 7 -3 11 -8 8 -4 -2 -8 22 -9 55 -1 32 3 61 8 64 5 4
9 11 9 16 0 6 -4 7 -10 4 -5 -3 -7 0 -4 9 3 8 11 17 19 19 8 4 11 16 8 34 -3
19 -2 24 5 15 8 -11 10 -11 15 0 3 9 -2 14 -14 15 -19 2 -22 -5 -20 -42 1 -17
-1 -16 -9 4 -7 17 -7 28 0 35 5 5 10 30 10 53 0 37 2 42 14 31 10 -9 11 -15 2
-20 -7 -5 -5 -8 7 -8 15 0 21 -9 19 -30 0 -3 22 -3 49 -2 43 3 48 2 43 -13 -5
-13 -9 -14 -15 -3 -13 21 -10 4 6 -36 16 -39 35 -48 35 -17 0 11 3 26 6 35 3
9 2 16 -3 16 -5 0 -10 -12 -11 -27 -1 -14 -5 -29 -8 -32 -4 -3 -4 18 -1 48 6
50 5 53 -15 48 -12 -4 -27 1 -37 10 -15 15 -14 16 6 11 14 -4 20 -2 17 6 -5
13 -44 16 -44 4 0 -4 -7 -5 -15 -2 -46 18 9 24 226 24 132 0 238 -3 235 -8 -2
-4 -73 -7 -156 -7 -83 0 -154 -3 -157 -8 -3 -4 76 -7 176 -6 99 1 178 6 175
10 -2 4 15 6 38 4 23 -2 45 1 49 6 3 6 15 9 25 7 32 -8 -33 -29 -92 -31 -29
-1 -50 -6 -47 -11 7 -11 111 2 146 19 31 16 77 5 77 -17 0 -9 -3 -9 -10 2 -5
8 -12 11 -16 7 -4 -4 -2 -13 4 -19 20 -20 40 7 24 32 -7 12 -8 20 -2 20 5 0
10 -5 10 -11 0 -6 17 -9 43 -8 33 3 41 0 39 -12 -1 -9 9 -21 22 -27 21 -9 24
-9 19 3 -3 8 -13 15 -22 16 -9 0 -11 3 -4 5 17 7 53 -14 50 -29 -1 -6 -9 -17
-17 -24 -10 -8 -11 -12 -3 -13 12 0 27 18 29 35 1 18 -38 54 -52 48 -8 -3 -14
0 -14 6 0 17 47 13 54 -4 4 -10 20 -15 51 -15 43 0 45 1 45 30 l0 30 -708 0
c-537 0 -711 -3 -720 -12z m239 -127 c20 -20 29 -39 29 -61 0 -43 -47 -90 -90
-90 -43 0 -90 47 -90 90 0 43 47 90 90 90 22 0 41 -9 61 -29z"/>
<path d="M460 972 c0 -13 -38 -22 -42 -10 -5 15 -36 -1 -41 -22 -3 -11 -17
-22 -33 -26 -22 -6 -31 -2 -49 19 -24 32 -60 35 -75 8 -13 -26 -13 -31 5 -31
17 0 20 -16 5 -25 -6 -3 -10 -17 -10 -31 0 -25 -14 -33 -24 -11 -5 10 -7 10
-12 0 -8 -19 -35 -16 -28 2 5 11 -1 15 -19 15 -14 0 -29 5 -33 12 -5 7 -3 8 6
3 10 -6 12 -4 7 9 -4 10 -7 23 -7 28 0 20 -11 1 -16 -26 -8 -48 10 -66 69 -67
77 -1 140 -12 145 -26 2 -8 -6 -13 -22 -13 -13 0 -27 -4 -30 -9 -12 -18 71
-27 134 -15 l32 7 -32 13 c-18 8 -42 14 -53 14 -36 0 -12 9 36 14 26 3 51 7
57 11 5 3 18 1 29 -5 16 -8 22 -6 30 7 6 11 11 13 11 5 0 -7 5 -10 10 -7 6 3
10 37 10 74 0 56 -3 70 -17 75 -10 3 -24 9 -30 12 -7 3 -13 1 -13 -4z"/>
<path d="M530 887 c0 -42 5 -79 10 -82 6 -3 10 -1 10 6 0 8 4 8 13 1 16 -14
259 -7 286 8 11 5 41 10 68 10 56 0 113 15 124 31 9 15 0 41 -12 33 -5 -3 -16
2 -25 10 -8 9 -22 16 -31 16 -9 0 -22 8 -29 18 -13 16 -15 16 -29 -2 -8 -10
-27 -20 -43 -21 -24 -2 -29 1 -25 16 7 24 -19 25 -43 2 -18 -18 -61 -19 -79
-2 -7 7 -3 8 10 3 11 -4 17 -4 14 0 -4 4 -33 9 -65 11 -33 2 -80 7 -106 10
l-48 7 0 -75z"/>
<path d="M1640 615 c0 -32 2 -35 29 -35 23 0 31 5 34 23 l4 22 2 -22 c1 -19 7
-23 35 -23 32 0 34 -2 38 -40 3 -39 3 -40 -29 -40 l-32 0 17 -30 c19 -34 29
-37 35 -12 4 16 5 16 6 0 1 -14 10 -18 36 -18 32 0 35 2 35 29 0 25 -5 30 -27
34 l-28 4 28 2 c26 1 27 3 27 54 0 69 -18 87 -87 87 -32 0 -53 -5 -56 -12 -4
-10 -6 -10 -6 0 -1 7 -14 12 -31 12 -28 0 -30 -3 -30 -35z"/>
<path d="M400 376 c0 -19 -80 -31 -92 -14 -6 10 -8 10 -8 1 0 -9 -19 -13 -57
-14 -32 -1 -50 -3 -40 -6 21 -6 23 -33 2 -33 -12 0 -13 -4 -6 -19 6 -10 7 -21
3 -25 -10 -11 20 -26 54 -26 24 0 31 -4 30 -17 -1 -16 9 -18 83 -18 73 0 85
-3 91 -19 8 -24 1 -76 -11 -76 -5 0 -9 -15 -8 -32 1 -31 1 -32 9 -8 7 23 8 22
9 -10 1 -23 4 -31 10 -22 10 17 22 17 32 1 6 -10 11 -7 18 11 l10 25 0 -29 1
-29 178 7 c97 4 197 11 222 16 25 5 80 9 122 10 74 0 78 1 92 28 16 31 7 65
-21 81 -10 6 -13 11 -8 11 6 1 -6 7 -25 15 -31 11 -33 14 -15 21 11 4 34 21
51 37 34 33 32 41 -14 66 -12 7 -114 19 -225 27 -111 7 -227 18 -258 24 -73
13 -99 13 -99 -2 0 -9 -3 -10 -8 -2 -9 14 -51 24 -57 14 -6 -10 -45 -1 -45 11
0 5 -4 9 -10 9 -5 0 -10 -6 -10 -14z"/>
<path d="M1210 296 c0 -53 3 -65 18 -69 16 -4 16 -5 0 -6 -15 -1 -18 -11 -18
-66 l0 -65 35 0 c32 0 35 2 35 29 0 26 -4 30 -32 34 l-33 4 32 1 c26 2 32 7
36 30 l4 27 2 -27 c1 -24 5 -28 31 -28 26 0 30 3 30 29 0 20 -6 31 -17 34 -16
4 -17 5 -1 6 16 1 16 3 0 31 -23 41 -42 38 -42 -5 0 -30 -3 -35 -22 -34 -17 1
-19 2 -5 6 11 3 17 14 17 33 0 25 -4 29 -32 33 l-33 4 33 1 c29 2 32 5 32 32
0 28 -3 30 -35 30 l-35 0 0 -64z"/>
<path d="M1590 142 c-8 -3 -18 -10 -22 -16 -5 -8 -8 -7 -8 2 0 7 -13 12 -30
12 -25 0 -30 -4 -30 -24 0 -18 7 -26 23 -29 22 -4 22 -4 0 -6 -14 -1 -23 -9
-26 -23 l-4 -23 -2 23 c-1 17 -7 22 -30 22 -26 0 -30 -4 -34 -32 l-4 -33 -1
33 c-2 29 -5 32 -32 32 -28 0 -30 -3 -30 -35 l0 -35 99 0 c70 0 101 4 104 13
4 10 6 10 6 0 1 -9 18 -13 51 -13 28 0 50 2 50 5 0 2 -6 16 -12 31 l-13 28 -6
-30 -7 -29 -1 32 c0 17 -7 34 -13 36 -10 4 -10 6 0 6 6 1 12 7 12 14 0 22 -24
45 -40 39z"/>
</g>
</svg>
