<?xml version="1.0" standalone="no"?>
<!DOCTYPE svg PUBLIC "-//W3C//DTD SVG 20010904//EN"
 "http://www.w3.org/TR/2001/REC-SVG-20010904/DTD/svg10.dtd">
<svg version="1.0" xmlns="http://www.w3.org/2000/svg"
 width="150.000000pt" height="150.000000pt" viewBox="0 0 150.000000 150.000000"
 preserveAspectRatio="xMidYMid meet">
<metadata>
Created by potrace 1.15, written by Peter Selinger 2001-2017
</metadata>
<g transform="translate(0.000000,150.000000) scale(0.100000,-0.100000)"
fill="#000000" stroke="none">
<path d="M450 1389 c-75 -15 -73 -2 -65 -380 l7 -336 -48 -11 c-107 -24 -273
-78 -298 -97 -31 -23 -35 -65 -9 -94 9 -11 29 -43 44 -70 24 -42 26 -51 13
-62 -24 -20 -17 -83 14 -117 15 -17 49 -58 75 -91 27 -34 54 -61 61 -61 7 0
27 -11 46 -25 36 -27 96 -33 130 -15 16 9 18 14 8 35 -6 15 -21 25 -37 27
l-26 3 -3 229 -2 230 26 27 27 28 -6 356 c-3 195 -3 364 0 375 3 11 12 20 19
20 8 0 14 4 14 9 0 5 26 13 58 19 31 5 44 10 27 10 -16 0 -50 -4 -75 -9z"/>
<path d="M960 976 c-4 -211 -8 -280 -17 -284 -7 -2 -13 -17 -13 -33 0 -16 -4
-29 -8 -29 -14 0 -14 -117 -1 -142 9 -15 13 -70 13 -158 l1 -135 30 -4 c25 -3
16 -8 -53 -31 -79 -26 -108 -40 -84 -40 7 0 12 -4 12 -9 0 -5 23 -32 52 -60
l52 -51 98 0 c93 0 100 2 122 25 13 14 28 25 33 25 11 0 53 43 53 54 0 4 7 14
15 22 8 9 15 22 15 30 0 21 -38 -7 -117 -86 -58 -58 -63 -61 -97 -55 l-36 7 0
263 0 264 -30 21 -30 21 -2 332 -3 332 -5 -279z"/>
</g>
</svg>
